<svg
    xmlns="http://www.w3.org/2000/svg"
    viewBox="0 0 740 520"
    id="vector">
    <path
        id="path"
        d="M 175.24 61.02 L 176.39 62.97 L 231.23 30.67 L 230.08 28.71 L 175.24 61.02 L 175.24 61.02 Z"
        fill="#ffffff"/>
    <path
        id="path_1"
        d="M 175.24 61.02 L 176.39 62.97 L 231.23 30.67 L 230.08 28.71 L 175.24 61.02 L 175.24 61.02 Z"
        fill="#00000000"
        stroke="#ffffff"
        stroke-width="1"/>
    <path
        id="path_2"
        d="M 211.42 91.71 L 213.5 92.61 L 238.88 34.24 L 236.8 33.33 L 211.42 91.71 L 211.42 91.71 Z"
        fill="#ffffff"/>
    <path
        id="path_3"
        d="M 211.42 91.71 L 213.5 92.61 L 238.88 34.24 L 236.8 33.33 L 211.42 91.71 L 211.42 91.71 Z"
        fill="#00000000"
        stroke="#ffffff"
        stroke-width="1"/>
    <path
        id="path_4"
        d="M 93.91 98.59 L 94.74 100.7 L 153.96 77.37 L 153.13 75.26 L 93.91 98.59 L 93.91 98.59 Z"
        fill="#ffffff"/>
    <path
        id="path_5"
        d="M 93.91 98.59 L 94.74 100.7 L 153.96 77.37 L 153.13 75.26 L 93.91 98.59 L 93.91 98.59 Z"
        fill="#00000000"
        stroke="#ffffff"
        stroke-width="1"/>
    <path
        id="path_6"
        d="M 177.59 81.58 L 173.11 84.56 L 183.19 96.14 L 186.93 93.16 L 177.59 81.58 L 177.59 81.58 Z"
        fill="#ffffff"/>
    <path
        id="path_7"
        d="M 111.28 170.79 L 112.43 172.75 L 176.94 134.75 L 175.79 132.79 L 111.28 170.79 L 111.28 170.79 Z"
        fill="#ffffff"/>
    <path
        id="path_8"
        d="M 111.28 170.79 L 112.43 172.75 L 176.94 134.75 L 175.79 132.79 L 111.28 170.79 L 111.28 170.79 Z"
        fill="#00000000"
        stroke="#ffffff"
        stroke-width="1"/>
    <path
        id="path_9"
        d="M 185.43 166.74 L 189.92 167.49 L 196.27 147.69 L 192.16 146.57 L 185.43 166.74 L 185.43 166.74 Z"
        fill="#ffffff"/>
    <path
        id="path_10"
        d="M 91.66 179.78 L 93.91 179.43 L 83.95 116.56 L 81.7 116.91 L 91.66 179.78 L 91.66 179.78 Z"
        fill="#ffffff"/>
    <path
        id="path_11"
        d="M 91.66 179.78 L 93.91 179.43 L 83.95 116.56 L 81.7 116.91 L 91.66 179.78 L 91.66 179.78 Z"
        fill="#00000000"
        stroke="#ffffff"
        stroke-width="1"/>
    <path
        id="path_12"
        d="M 104.63 190.81 L 104.33 193.06 L 167.44 201.37 L 167.74 199.12 L 104.63 190.81 L 104.63 190.81 Z"
        fill="#ffffff"/>
    <path
        id="path_13"
        d="M 104.63 190.81 L 104.33 193.06 L 167.44 201.37 L 167.74 199.12 L 104.63 190.81 L 104.63 190.81 Z"
        fill="#00000000"
        stroke="#ffffff"
        stroke-width="1"/>
    <path
        id="path_14"
        d="M 27.11 208.89 L 27.76 211.07 L 88.79 192.99 L 88.15 190.81 L 27.11 208.89 L 27.11 208.89 Z"
        fill="#ffffff"/>
    <path
        id="path_15"
        d="M 27.11 208.89 L 27.76 211.07 L 88.79 192.99 L 88.15 190.81 L 27.11 208.89 L 27.11 208.89 Z"
        fill="#00000000"
        stroke="#ffffff"
        stroke-width="1"/>
    <path
        id="path_16"
        d="M 131.1 266.1 L 132.92 267.47 L 171.22 216.63 L 169.41 215.26 L 131.1 266.1 L 131.1 266.1 Z"
        fill="#ffffff"/>
    <path
        id="path_17"
        d="M 131.1 266.1 L 132.92 267.47 L 171.22 216.63 L 169.41 215.26 L 131.1 266.1 L 131.1 266.1 Z"
        fill="#00000000"
        stroke="#ffffff"
        stroke-width="1"/>
    <path
        id="path_18"
        d="M 116.89 269.88 L 119.03 269.12 L 97.78 209.12 L 95.64 209.87 L 116.89 269.88 L 116.89 269.88 Z"
        fill="#ffffff"/>
    <path
        id="path_19"
        d="M 116.89 269.88 L 119.03 269.12 L 97.78 209.12 L 95.64 209.87 L 116.89 269.88 L 116.89 269.88 Z"
        fill="#00000000"
        stroke="#ffffff"
        stroke-width="1"/>
    <path
        id="path_20"
        d="M 24.21 305.79 L 26.21 306.87 L 77.57 211.29 L 75.56 210.21 L 24.21 305.79 L 24.21 305.79 Z"
        fill="#ffffff"/>
    <path
        id="path_21"
        d="M 24.21 305.79 L 26.21 306.87 L 77.57 211.29 L 75.56 210.21 L 24.21 305.79 L 24.21 305.79 Z"
        fill="#00000000"
        stroke="#ffffff"
        stroke-width="1"/>
    <path
        id="path_22"
        d="M 30.41 310.93 L 30.66 315.48 L 125.33 280.09 L 124.55 275.44 L 30.41 310.93 L 30.41 310.93 Z"
        fill="#ffffff"/>
    <path
        id="path_23"
        d="M 141.36 350.52 L 140.61 356.5 L 184.69 334.46 L 182.44 329.98 L 141.36 350.52 L 141.36 350.52 Z"
        fill="#ffffff"/>
    <path
        id="path_24"
        d="M 204.31 307.4 L 206.54 307 L 190.05 215.78 L 187.81 216.19 L 204.31 307.4 L 204.31 307.4 Z"
        fill="#ffffff"/>
    <path
        id="path_25"
        d="M 204.31 307.4 L 206.54 307 L 190.05 215.78 L 187.81 216.19 L 204.31 307.4 L 204.31 307.4 Z"
        fill="#00000000"
        stroke="#ffffff"
        stroke-width="1"/>
    <path
        id="path_26"
        d="M 217.24 305.98 L 219.34 306.87 L 252.69 228.3 L 250.59 227.42 L 217.24 305.98 L 217.24 305.98 Z"
        fill="#ffffff"/>
    <path
        id="path_27"
        d="M 217.24 305.98 L 219.34 306.87 L 252.69 228.3 L 250.59 227.42 L 217.24 305.98 L 217.24 305.98 Z"
        fill="#00000000"
        stroke="#ffffff"
        stroke-width="1"/>
    <path
        id="path_28"
        d="M 250.72 199.08 L 252.69 197.94 L 214.6 131.98 L 212.63 133.12 L 250.72 199.08 L 250.72 199.08 Z"
        fill="#ffffff"/>
    <path
        id="path_29"
        d="M 250.72 199.08 L 252.69 197.94 L 214.6 131.98 L 212.63 133.12 L 250.72 199.08 L 250.72 199.08 Z"
        fill="#00000000"
        stroke="#ffffff"
        stroke-width="1"/>
    <path
        id="path_30"
        d="M 205.88 400.33 L 208.15 400.44 L 211.2 336.86 L 208.93 336.75 L 205.88 400.33 L 205.88 400.33 Z"
        fill="#ffffff"/>
    <path
        id="path_31"
        d="M 205.88 400.33 L 208.15 400.44 L 211.2 336.86 L 208.93 336.75 L 205.88 400.33 L 205.88 400.33 Z"
        fill="#00000000"
        stroke="#ffffff"
        stroke-width="1"/>
    <path
        id="path_32"
        d="M 127.91 439.8 L 129.78 444.28 L 180.95 427.85 L 179.08 422.99 L 127.91 439.8 L 127.91 439.8 Z"
        fill="#ffffff"/>
    <path
        id="path_33"
        d="M 248.72 483.19 L 250.65 481.99 L 216.92 428 L 214.99 429.21 L 248.72 483.19 L 248.72 483.19 Z"
        fill="#ffffff"/>
    <path
        id="path_34"
        d="M 248.72 483.19 L 250.65 481.99 L 216.92 428 L 214.99 429.21 L 248.72 483.19 L 248.72 483.19 Z"
        fill="#00000000"
        stroke="#ffffff"
        stroke-width="1"/>
    <path
        id="path_35"
        d="M 107.43 439.5 L 109.7 439.66 L 115.07 362.84 L 112.81 362.68 L 107.43 439.5 L 107.43 439.5 Z"
        fill="#ffffff"/>
    <path
        id="path_36"
        d="M 107.43 439.5 L 109.7 439.66 L 115.07 362.84 L 112.81 362.68 L 107.43 439.5 L 107.43 439.5 Z"
        fill="#00000000"
        stroke="#ffffff"
        stroke-width="1"/>
    <path
        id="path_37"
        d="M 112.83 345.76 L 115.08 346.08 L 123.94 283.04 L 121.69 282.73 L 112.83 345.76 L 112.83 345.76 Z"
        fill="#ffffff"/>
    <path
        id="path_38"
        d="M 112.83 345.76 L 115.08 346.08 L 123.94 283.04 L 121.69 282.73 L 112.83 345.76 L 112.83 345.76 Z"
        fill="#00000000"
        stroke="#ffffff"
        stroke-width="1"/>
    <path
        id="path_39"
        d="M 34.21 319.8 L 33.12 321.79 L 89.06 352.17 L 90.15 350.17 L 34.21 319.8 L 34.21 319.8 Z"
        fill="#ffffff"/>
    <path
        id="path_40"
        d="M 34.21 319.8 L 33.12 321.79 L 89.06 352.17 L 90.15 350.17 L 34.21 319.8 L 34.21 319.8 Z"
        fill="#00000000"
        stroke="#ffffff"
        stroke-width="1"/>
    <path
        id="path_41"
        d="M 99.03 108.17 L 98.81 110.43 L 176.72 117.93 L 176.94 115.67 L 99.03 108.17 L 99.03 108.17 Z"
        fill="#ffffff"/>
    <path
        id="path_42"
        d="M 99.03 108.17 L 98.81 110.43 L 176.72 117.93 L 176.94 115.67 L 99.03 108.17 L 99.03 108.17 Z"
        fill="#00000000"
        stroke="#ffffff"
        stroke-width="1"/>
    <path
        id="path_43"
        d="M 252.68 10.75 C 116.16 22.86 9.35 130.32 9.35 261.11 C 9.35 391.9 116.16 499.36 252.68 511.47 L 252.68 506.32 C 119.19 494.23 14.84 389.07 14.84 261.11 C 14.84 133.15 119.19 28 252.68 15.9 L 252.68 10.75 Z"
        fill="#ffffff"/>
    <path
        id="path_44"
        d="M 185 241.37 C 205.9 241.37 222.85 224.11 222.85 202.83 C 222.85 181.55 205.87 164.3 185 164.3 C 164.13 164.3 147.14 181.55 147.14 202.83 C 147.14 224.11 164.09 241.37 185 241.37 Z"
        fill="#bbdaf9"/>
    <path
        id="path_45"
        d="M 237 448.06 C 250 436.34 248.53 413.49 233.69 397.01 C 218.85 380.53 196.28 376.67 183.27 388.39 C 170.26 400.11 171.74 422.96 186.58 439.39 C 201.42 455.82 224 459.77 237 448.06 Z"
        fill="#afd4f9"/>
    <path
        id="path_46"
        d="M 176.48 138.88 C 187.01 152.88 209.91 153.38 227.62 140.04 C 245.33 126.7 251.14 104.54 240.62 90.56 C 230.1 76.58 207.19 76.06 189.48 89.41 C 171.77 102.76 165.96 124.9 176.48 138.88 Z"
        fill="#ffbe00"/>
    <path
        id="path_47"
        d="M 20 234 C 31.13 236 42.19 226 44.71 211.7 C 47.23 197.4 40.24 184.25 29.12 182.29 C 18 180.33 6.93 190.29 4.41 204.59 C 1.89 218.89 8.87 232 20 234 Z"
        fill="#ff871c"/>
    <path
        id="path_48"
        d="M 78.46 223.22 C 91.89 228.38 108.08 218.77 114.62 201.75 C 121.16 184.73 115.55 166.75 102.11 161.6 C 88.67 156.45 72.49 166.06 66 183.07 C 59.51 200.08 65.06 218.07 78.5 223.22 Z"
        fill="#75bdf4"/>
    <path
        id="path_49"
        d="M 127.83 301.93 C 139.99 300.65 148.53 287.15 146.92 271.77 C 145.31 256.39 134.13 245 122 246.24 C 109.87 247.48 101.26 261 102.88 276.4 C 104.5 291.8 115.66 303.21 127.88 301.93 Z"
        fill="#009ee3"/>
    <path
        id="path_50"
        d="M 127.48 397.1 C 144.03 391.4 151.6 369.78 144.38 348.82 C 137.16 327.86 117.89 315.48 101.38 321.18 C 84.87 326.88 77.26 348.5 84.48 369.46 C 91.7 390.42 110.97 402.8 127.48 397.1 Z"
        fill="#f39436"/>
    <path
        id="path_51"
        d="M 146.81 83.08 C 152.64 91.41 166.04 92.08 176.73 84.61 C 187.42 77.14 191.36 64.3 185.52 56 C 179.68 47.7 166.29 47 155.6 54.47 C 144.91 61.94 141 74.75 146.81 83.08 Z"
        fill="#75bdf4"/>
    <path
        id="path_52"
        d="M 124.86 470.47 C 134.45 464.47 135.99 449.66 128.3 437.36 C 120.61 425.06 106.62 420 97 425.93 C 87.38 431.86 85.91 446.74 93.6 459 C 101.29 471.26 115.28 476.41 124.86 470.43 Z"
        fill="#1b7299"/>
    <path
        id="path_53"
        d="M 66.27 125.39 C 75.41 132.03 89.73 127.9 98.27 116.17 C 106.81 104.44 106.27 89.54 97.16 82.9 C 88.05 76.26 73.69 80.39 65.16 92.12 C 56.63 103.85 57.16 118.74 66.28 125.39 Z"
        fill="#1b7299"/>
    <path
        id="path_54"
        d="M 252.68 190.28 C 247.74 194.6 244.16 201.48 243.32 209.5 C 242.21 220.03 246.12 229.6 252.68 234.5 L 252.68 190.28 Z"
        fill="#1b7299"/>
    <path
        id="path_55"
        d="M 215.22 357.13 C 231.76 354.22 242.17 334.88 238.47 313.94 C 234.77 293 218.39 278.39 201.85 281.31 C 185.31 284.23 174.91 303.56 178.6 324.5 C 182.29 345.44 198.69 360.05 215.22 357.13 Z"
        fill="#ffbe00"/>
    <path
        id="path_56"
        d="M 35.12 340.16 C 45.73 336.29 50.32 322.11 45.36 308.48 C 40.4 294.85 27.77 286.94 17.15 290.81 C 6.53 294.68 2 308.85 6.91 322.48 C 11.82 336.11 24.5 344 35.12 340.16 Z"
        fill="#aea6d5"/>
    <path
        id="path_57"
        d="M 252.68 475.44 C 240.86 475.99 231.1 482.68 229.39 492.36 C 227.39 504.04 237.75 515.64 252.68 518.36 L 252.68 475.44 Z"
        fill="#aea6d5"/>
    <path
        id="path_58"
        d="M 252.68 2.3 C 249.251 1.415 245.702 1.094 242.17 1.35 C 227.7 2.35 216.61 12.35 217.4 23.59 C 218.19 34.83 230.55 43.18 245 42.17 C 247.602 41.99 250.173 41.503 252.66 40.72 L 252.66 2.3 Z"
        fill="#ff871c"/>
    <path
        id="path_59"
        d="M 738.11 121.86 L 693 121.86 L 650.8 204.86 L 631.8 121.86 L 582.6 121.86 L 618.6 268.23 L 544.73 413.54 L 589.05 413.54 L 633.11 327.31 L 654.31 413.54 L 698.63 413.54 L 664.69 265.54 L 738.11 121.88 Z M 562.62 163.76 C 562.62 163.76 567.78 119.29 518.79 119.29 L 488.5 119.29 C 488.5 119.29 439.18 123.15 433.06 162.8 L 406.15 349.08 C 406.15 349.08 391.81 415.15 462.07 415.15 C 462.07 415.15 526.2 418.05 534.26 369.38 L 562.62 163.76 Z M 519.43 172.76 L 494.3 360.36 C 491.07 381.63 467.87 378.41 467.87 378.41 C 444.66 378.41 447.87 355.2 447.87 355.2 L 472.37 172.79 C 475.59 154.09 498.15 155.7 498.15 155.7 C 523.94 155.7 519.42 172.79 519.42 172.79 Z M 342.5 413.54 L 453.69 3.42 L 406.15 3.42 L 324.77 336.19 L 336.05 3.42 L 286.1 3.42 L 286.1 413.54 Z"
        fill="#ffffff"/>
    <path
        id="path_60"
        d="M 252.69 2.4 L 252.69 518.37 L 255.94 518.37 L 255.94 2.4 L 252.69 2.4 L 252.69 2.4 Z"
        fill="#75bdf4"/>
    <path
        id="path_61"
        d="M 336.47 488.4 Q 336.24 495.4 332.62 498.65 Q 329 501.9 322.14 501.87 Q 314.04 501.87 310.73 496.21 Q 307.42 490.55 307.42 477.36 L 307.42 471.53 Q 307.6 459.35 311.05 453.8 Q 314.5 448.25 321.92 448.25 Q 329.23 448.25 332.79 451.54 Q 336.35 454.83 336.58 462.35 L 356.4 462.35 Q 355.15 448.48 346.04 440.58 Q 336.93 432.68 321.92 432.68 C 315.452 432.559 309.083 434.294 303.57 437.68 C 298.227 441.041 294 445.915 291.43 451.68 C 288.488 458.352 287.047 465.59 287.21 472.88 L 287.21 477 Q 287.21 496.31 296.55 506.9 Q 305.89 517.49 322.14 517.49 C 328.181 517.601 334.17 516.361 339.67 513.86 C 344.536 511.66 348.673 508.113 351.59 503.64 C 354.472 499.082 356.075 493.831 356.23 488.44 Z M 362.4 488.34 Q 363 501.77 371 509.6 Q 379 517.43 392 517.45 Q 405.59 517.45 413.54 509.04 Q 421.49 500.63 421.54 486.3 L 421.54 485.62 Q 421.54 470.97 413.61 462.44 Q 405.68 453.91 391.93 453.91 C 386.45 453.78 381.034 455.112 376.24 457.77 C 371.795 460.322 368.222 464.156 365.99 468.77 C 363.543 473.86 362.323 479.453 362.43 485.1 L 362.43 488.33 Z M 381.48 482.85 Q 382.27 468.64 391.85 468.64 Q 402.38 468.64 402.38 485.11 L 402.38 487 Q 402.16 502.69 391.96 502.68 C 390.413 502.758 388.873 502.43 387.492 501.729 C 386.111 501.027 384.938 499.976 384.09 498.68 Q 381.42 494.68 381.43 486.22 L 381.48 482.77 Z M 429.48 455.05 L 429.48 516.31 L 448.56 516.31 L 448.56 473.05 C 449.414 471.625 450.642 470.461 452.11 469.684 C 453.578 468.907 455.232 468.546 456.89 468.64 C 460.17 468.64 462.43 469.36 463.68 470.82 C 464.93 472.28 465.55 474.55 465.55 477.64 L 465.55 516.31 L 484.69 516.31 L 484.69 476.85 Q 484.51 465.36 479.79 459.63 Q 475.07 453.9 465.49 453.91 Q 454.33 453.91 448 462.24 L 447.37 455.05 Z M 494.88 455.05 L 494.88 516.31 L 514 516.31 L 514 473.05 C 514.853 471.626 516.079 470.462 517.545 469.685 C 519.012 468.908 520.663 468.546 522.32 468.64 C 525.61 468.64 527.87 469.36 529.12 470.82 C 530.37 472.28 530.99 474.55 530.99 477.64 L 530.99 516.31 L 550.13 516.31 L 550.13 476.85 Q 549.95 465.36 545.23 459.63 Q 540.51 453.9 530.93 453.91 Q 519.77 453.91 513.43 462.24 L 512.81 455.05 Z M 604.36 514.53 C 608.367 512.863 611.858 510.156 614.47 506.69 L 605.75 496.38 Q 600.65 502.73 591.59 502.72 C 588.332 502.872 585.129 501.826 582.59 499.78 C 580.21 497.678 578.63 494.815 578.12 491.68 L 616.06 491.68 L 616.06 484.27 Q 616.06 469.93 608.58 461.93 Q 601.1 453.93 588.2 453.93 C 582.658 453.787 577.18 455.149 572.35 457.87 C 567.939 460.476 564.417 464.357 562.25 469 C 559.843 474.193 558.653 479.868 558.77 485.59 L 558.77 487.17 Q 558.77 500.66 567.49 509.06 Q 576.21 517.46 590.31 517.47 C 595.154 517.503 599.95 516.508 604.38 514.55 Z M 595.1 471.16 C 596.72 472.84 597.5 475.16 597.42 478.26 L 597.42 479.74 L 578.19 479.74 Q 579.78 468.64 588.19 468.64 Q 592.73 468.64 595.19 471.16 Z M 642.66 499.16 Q 640.46 495.59 640.46 486.36 C 640.422 483.598 640.552 480.836 640.85 478.09 Q 642.1 468.64 649.51 468.64 C 650.671 468.587 651.83 468.787 652.906 469.228 C 653.982 469.668 654.949 470.338 655.74 471.19 C 657.29 472.88 658.07 475.32 658.07 478.49 L 676 478.49 Q 676 467.16 669 460.54 Q 662 453.92 650 453.91 C 644.65 453.773 639.363 455.098 634.71 457.74 C 630.392 460.305 626.947 464.115 624.83 468.67 C 622.461 473.803 621.288 479.408 621.4 485.06 L 621.4 485.85 Q 621.4 500.68 629.11 509.07 Q 636.82 517.46 650.17 517.45 Q 661.56 517.45 668.77 510.99 C 671.118 508.937 672.983 506.391 674.233 503.533 C 675.483 500.676 676.086 497.578 676 494.46 L 658.09 494.46 C 658.173 495.569 658.024 496.684 657.652 497.733 C 657.28 498.781 656.694 499.741 655.93 500.55 C 655.089 501.31 654.105 501.893 653.035 502.266 C 651.965 502.638 650.831 502.793 649.7 502.72 C 646.49 502.72 644.15 501.54 642.7 499.16 Z M 687.17 439.82 L 687.17 455.05 L 679.36 455.05 L 679.36 468.3 L 687.17 468.3 L 687.17 498.7 Q 687.17 508.16 691.87 512.8 Q 696.57 517.44 706.42 517.45 C 710.071 517.463 713.701 516.907 717.18 515.8 L 717.18 502.16 C 715.605 502.405 714.013 502.519 712.42 502.5 C 709.97 502.5 708.33 502.04 707.49 501.14 C 706.65 500.24 706.25 498.63 706.25 496.33 L 706.25 468.33 L 716.33 468.33 L 716.33 455.05 L 706.27 455.05 L 706.27 439.82 Z"
        fill="#a5d4f8"/>
</svg>
